<mxfile host="app.diagrams.net" modified="2020-06-27T12:01:12.710Z" agent="5.0 (Macintosh; Intel Mac OS X 10_15_5) AppleWebKit/537.36 (KHTML, like Gecko) Chrome/83.0.4103.116 Safari/537.36" etag="a0LdGX2ezb9J04mRhQzk" version="13.3.5" type="github">
  <diagram id="jKpAJ13wnrlV4QPyBCpc" name="Page-1">
    <mxGraphModel dx="1042" dy="678" grid="1" gridSize="10" guides="1" tooltips="1" connect="1" arrows="1" fold="1" page="1" pageScale="1" pageWidth="850" pageHeight="1100" math="0" shadow="0">
      <root>
        <mxCell id="0" />
        <mxCell id="1" parent="0" />
        <mxCell id="cWH1D8ZTZupAAVUN-6vR-6" value="" style="edgeStyle=orthogonalEdgeStyle;rounded=0;orthogonalLoop=1;jettySize=auto;html=1;" edge="1" parent="1" source="cWH1D8ZTZupAAVUN-6vR-2" target="cWH1D8ZTZupAAVUN-6vR-5">
          <mxGeometry relative="1" as="geometry" />
        </mxCell>
        <mxCell id="cWH1D8ZTZupAAVUN-6vR-2" value="Mobility Model" style="rounded=0;whiteSpace=wrap;html=1;fillColor=#dae8fc;strokeColor=#6c8ebf;" vertex="1" parent="1">
          <mxGeometry x="320" y="80" width="120" height="240" as="geometry" />
        </mxCell>
        <mxCell id="cWH1D8ZTZupAAVUN-6vR-4" style="edgeStyle=orthogonalEdgeStyle;rounded=0;orthogonalLoop=1;jettySize=auto;html=1;entryX=0;entryY=0.5;entryDx=0;entryDy=0;" edge="1" parent="1" source="cWH1D8ZTZupAAVUN-6vR-3" target="cWH1D8ZTZupAAVUN-6vR-2">
          <mxGeometry relative="1" as="geometry" />
        </mxCell>
        <mxCell id="cWH1D8ZTZupAAVUN-6vR-3" value="Mobility&amp;nbsp;&lt;br&gt;Data" style="shape=cylinder;whiteSpace=wrap;html=1;boundedLbl=1;backgroundOutline=1;fillColor=#dae8fc;strokeColor=#6c8ebf;" vertex="1" parent="1">
          <mxGeometry x="200" y="160" width="60" height="80" as="geometry" />
        </mxCell>
        <mxCell id="cWH1D8ZTZupAAVUN-6vR-8" value="" style="edgeStyle=orthogonalEdgeStyle;rounded=0;orthogonalLoop=1;jettySize=auto;html=1;" edge="1" parent="1" source="cWH1D8ZTZupAAVUN-6vR-5">
          <mxGeometry relative="1" as="geometry">
            <mxPoint x="720" y="200" as="targetPoint" />
          </mxGeometry>
        </mxCell>
        <mxCell id="cWH1D8ZTZupAAVUN-6vR-5" value="Mobility&lt;br&gt;Control &lt;br&gt;Policy" style="rounded=0;whiteSpace=wrap;html=1;fillColor=#ffe6cc;strokeColor=#d79b00;" vertex="1" parent="1">
          <mxGeometry x="520" y="80" width="120" height="240" as="geometry" />
        </mxCell>
      </root>
    </mxGraphModel>
  </diagram>
</mxfile>
